<mxfile host="Electron" modified="2024-05-23T03:57:13.355Z" agent="Mozilla/5.0 (Windows NT 10.0; Win64; x64) AppleWebKit/537.36 (KHTML, like Gecko) draw.io/24.4.6 Chrome/124.0.6367.207 Electron/30.0.6 Safari/537.36" etag="CaKej4S3M6nvSlzSy3BC" version="24.4.6" type="device">
  <diagram id="C5RBs43oDa-KdzZeNtuy" name="Page-1">
    <mxGraphModel dx="596" dy="350" grid="1" gridSize="10" guides="1" tooltips="1" connect="1" arrows="1" fold="1" page="1" pageScale="1" pageWidth="827" pageHeight="1169" math="0" shadow="0">
      <root>
        <mxCell id="WIyWlLk6GJQsqaUBKTNV-0" />
        <mxCell id="WIyWlLk6GJQsqaUBKTNV-1" parent="WIyWlLk6GJQsqaUBKTNV-0" />
        <mxCell id="-YdxKrjBZYpB6MyL-CUc-0" value="Calculator" style="swimlane;fontStyle=1;align=center;verticalAlign=top;childLayout=stackLayout;horizontal=1;startSize=26;horizontalStack=0;resizeParent=1;resizeParentMax=0;resizeLast=0;collapsible=1;marginBottom=0;whiteSpace=wrap;html=1;" parent="WIyWlLk6GJQsqaUBKTNV-1" vertex="1">
          <mxGeometry x="60" y="80" width="180" height="160" as="geometry" />
        </mxCell>
        <mxCell id="-YdxKrjBZYpB6MyL-CUc-1" value="+ a: int&lt;br&gt;&lt;div&gt;+ b: int&lt;/div&gt;" style="text;strokeColor=none;fillColor=none;align=left;verticalAlign=top;spacingLeft=4;spacingRight=4;overflow=hidden;rotatable=0;points=[[0,0.5],[1,0.5]];portConstraint=eastwest;whiteSpace=wrap;html=1;" parent="-YdxKrjBZYpB6MyL-CUc-0" vertex="1">
          <mxGeometry y="26" width="180" height="54" as="geometry" />
        </mxCell>
        <mxCell id="-YdxKrjBZYpB6MyL-CUc-2" value="" style="line;strokeWidth=1;fillColor=none;align=left;verticalAlign=middle;spacingTop=-1;spacingLeft=3;spacingRight=3;rotatable=0;labelPosition=right;points=[];portConstraint=eastwest;strokeColor=inherit;" parent="-YdxKrjBZYpB6MyL-CUc-0" vertex="1">
          <mxGeometry y="80" width="180" height="8" as="geometry" />
        </mxCell>
        <mxCell id="-YdxKrjBZYpB6MyL-CUc-3" value="Calculator()&lt;br&gt;&lt;div&gt;+ multiply(): int&lt;/div&gt;" style="text;strokeColor=none;fillColor=none;align=left;verticalAlign=top;spacingLeft=4;spacingRight=4;overflow=hidden;rotatable=0;points=[[0,0.5],[1,0.5]];portConstraint=eastwest;whiteSpace=wrap;html=1;" parent="-YdxKrjBZYpB6MyL-CUc-0" vertex="1">
          <mxGeometry y="88" width="180" height="72" as="geometry" />
        </mxCell>
        <mxCell id="-YdxKrjBZYpB6MyL-CUc-5" value="B1: định nghĩa Class Calculator" style="rounded=1;whiteSpace=wrap;html=1;" parent="WIyWlLk6GJQsqaUBKTNV-1" vertex="1">
          <mxGeometry x="80" y="300" width="120" height="60" as="geometry" />
        </mxCell>
        <mxCell id="-YdxKrjBZYpB6MyL-CUc-6" value="B2. Khởi tạo đối tượng Calculator từ lớp Calculator trong vùng nhớ Heap (Heap Memory)&lt;div&gt;&lt;br&gt;&lt;/div&gt;" style="rounded=1;whiteSpace=wrap;html=1;" parent="WIyWlLk6GJQsqaUBKTNV-1" vertex="1">
          <mxGeometry x="360" y="280" width="120" height="100" as="geometry" />
        </mxCell>
        <mxCell id="NvSLLohelED6vJnicQob-0" value="" style="endArrow=classic;html=1;rounded=0;entryX=-0.008;entryY=0.41;entryDx=0;entryDy=0;entryPerimeter=0;exitX=1.017;exitY=0.383;exitDx=0;exitDy=0;exitPerimeter=0;" edge="1" parent="WIyWlLk6GJQsqaUBKTNV-1" source="-YdxKrjBZYpB6MyL-CUc-5" target="-YdxKrjBZYpB6MyL-CUc-6">
          <mxGeometry width="50" height="50" relative="1" as="geometry">
            <mxPoint x="200" y="330" as="sourcePoint" />
            <mxPoint x="250" y="280" as="targetPoint" />
          </mxGeometry>
        </mxCell>
        <mxCell id="NvSLLohelED6vJnicQob-1" value="B3. Gửi thông điệp (mesage) cho đối tượng Calculator để biểu nó nhân 2*2" style="rounded=1;whiteSpace=wrap;html=1;" vertex="1" parent="WIyWlLk6GJQsqaUBKTNV-1">
          <mxGeometry x="600" y="290" width="120" height="60" as="geometry" />
        </mxCell>
        <mxCell id="NvSLLohelED6vJnicQob-2" value="BTVN: phân biệt đc vùng nhớ Stack và vùng nhớ Heap" style="rounded=1;whiteSpace=wrap;html=1;" vertex="1" parent="WIyWlLk6GJQsqaUBKTNV-1">
          <mxGeometry x="600" y="150" width="120" height="60" as="geometry" />
        </mxCell>
        <mxCell id="NvSLLohelED6vJnicQob-3" value="" style="endArrow=classic;html=1;rounded=0;entryX=0;entryY=0.5;entryDx=0;entryDy=0;" edge="1" parent="WIyWlLk6GJQsqaUBKTNV-1" target="NvSLLohelED6vJnicQob-1">
          <mxGeometry width="50" height="50" relative="1" as="geometry">
            <mxPoint x="480" y="320" as="sourcePoint" />
            <mxPoint x="530" y="270" as="targetPoint" />
          </mxGeometry>
        </mxCell>
        <mxCell id="NvSLLohelED6vJnicQob-5" value="" style="shape=image;verticalLabelPosition=bottom;labelBackgroundColor=default;verticalAlign=top;aspect=fixed;imageAspect=0;image=data:image/png,iVBORw0KGgoAAAANSUhEUgAAAy0AAABRCAYAAADfGEkhAAAAAXNSR0IArs4c6QAAAARnQU1BAACxjwv8YQUAAAAJcEhZcwAADsMAAA7DAcdvqGQAADd4SURBVHhe7Z0PcFXXfee/tgl/n/UEEvCsR5FUhARGMmAxxNgl2MvC2uC6Ezu2izONx229jseO23TaxkuTTqbxUiftpO0mHpd1u+TPxN7EDmm6AbIwZCN7CesUFagxIEtYKEGRBEiW0MO2MC57fuece++5991/7x96oN9n5o70zn3v3HN+53f+/M75nXOvWbRo0SUwDMMwDMMwDMOUKdfU1tay0cIwDMMwDMMwTNlyrf7LMAzDMAzDMAxTlhR1pWXy576Exa0V6sPJHTj8p7vV/0WglHGXM8u3duPuBvX/8P4t+NrnX1AfikAp42YYi09v/Svcr/Uss38rfuvzXepDEShl3MXjy7j4xbtwzX+/Cdf9SgfJsFZc+8X/yDNHDMMwDBMDn/6yEdX/+HdY+j19fWW9Do/mwpe/gMMP/AGOtZ/TIcWj4Lg/9ik0fO+zSOiPl5dn8Tt7u/EFfX3mmUd1eDQHH6vHl9bW40clGIsVHPfje/CF7d9BSn8sFqlnDtuyUtceLNf3LgdkzOVSRhODtdi696+wV18/fEZbCjH4+8f+BGvX/gleLoEOFxz3409i7/aHRO5KxaP48A8fxKXXv2YYLMTncN3rc3DhD18E++cyDMMwTDQeo2U90t97AunBHdJAkNebS5B+WN9mcmfdd/CZvQ+icv8WaSDQ9TIewF3r9H3Gn67v2vL6UVcD7i6BccTEZN1D+OHeO5Hav1UaCHT9N9yJLazDkVy66zP4AD/DpF3Zq5jX7LoJkwdvxcW72EBmGIZhmChc7mHSBauxE8d+71u4oMO8uNy0cA69X/8Czr6qP2rkd6pe83Xhcv8eOLvjD9D7TZ/f0MrIk1Xof+BvkFEhkuC4yeDaiGr9yXEh84TbuNOe+MrfYUGd+t99j1aensCUV/8AI0us7/jn2w/pggUxAH/saR3i5VHctX0zViT1x5Gf4YV7P4l+/dGC4vmNM34uXLSK8yDspNu/V/FW76nHt59Xt2gF49HZu7LSEhg3raR8wplRP/mKjosMsadvRaUKNujCj9auw0H61/sdMkKs58p7c/B/17aj2Uq7kW9vOuXnG48YcvHIzIibvns/jmB41a0iXpGeV4C7KQ/Gd0y3OCrLA88uxa49+jmrHN20MdPukfdlc6tb/Bd48deP4rnhNXiieboMevfI3+P39+2X/xO33fa8fQ/owY6tf47viP8+ufGbuGPY/V1gFf70oU+j8uDD2HxMBwUgXbDwY6x9bK8O8dKALdsfw0dtHT6ILfe+CO+3KZ67zvi5cHl+L9L+8tqv4+91eNWeP8FjWofXPvPn2Dx7X1ZaAuOmlZRP1OoPoihf0XGRIfb0cp+VV+vZBK0u3SlSoTHzJX8/C7vWHsNy6ztZ+fZzC/NQ8yI++M9zcJ2fm9iaP8O3nroZOPC3+NRfvqYDGYZhGGZiYvSTjahorMD5t/5foMFChsRsfNtehTnWDqQf/hQm69tRKINlCCesVRxxkcFSDBJfWYIRO94dOFu3Ua8Q7UYvhX29Hedx0ni2Y3RQuhZUteOYvifz9aTblax6498hNficvH/iZAXSd8dxm3sWzWI0c/KQNeDNJvXMA8DzakXhS2u34ABuxf2xXZPUANpcxfmSj8GTHyLuZe1OvK90oe4T2k1rzyfxNR0mjQ3rO5bBQr8VBsuwMHJU+HdxsuFBj8tVA+7eexfOPqvvJ2/Fusf1LRePYvmNwpA480s7X8u3CoPljDAkZNxCZrPdcVeuahbxivAR8Yx1p/HCsz/DcEOrTDsZJnfPdtL8ghjHr3ha5av/80tlGLnLkTGi4heXbbCQsWTK+7vCONqM3/FNdwmYdxeeqGzDQ1sfxkOv9mB68134pL5FRs0TzWeEoSLuieu5I7Ox8aE/wm3i1snhdzG90hm458ZaLCeb71CQwUKGxJ1Ch9UKzNq1W/G6kOZTsd3HtMFyRhhFehVnrW00FIowOpYdc+J9pQcNn3gSn6Zbe17Eb+kwaWxkPZvSZa4uqXxt3mo6ktXi/r23YfBZuv9jdCWX4wFTF1pbcXH4CK4NMliIX/0fXDvcgH9v1Z8ZhmEYhvEltz2gr34LvV9+S38ALuzvxPnrq2IaLesxu7UCZ3e4V06KReZPzXh3Y+QkMC3VqD+HodMl8mYZaxe+/G30jtYhabrFndyBLp33zJsi8qpUbGMtjP7Pr5Oz/IoXcPDoOVTOXqA/h5N65i7UCaPh5ZLM9D+Nb9uDdcHz7cLkm4NUDJcgK1179Oy4jEsYOJU33u5y8Tr5ilrhoPtHhKFQmTaMGmHkqP0sm9FwVBgJxkpHc0MXfmR/fkHE4Ym7a5ct05PCwHKMuGexblWFK6z/81+Xxk1zHMNj3e1iKGvK+2ns2X8Odcue1Z/D+b2v7cCOHd7re/jif9BfiGL0MJ7b8T/V/8eOivKYjfRs9fGTv16Lk6+qlRVi3742nLx+IW4T9/cNndGhatXlH25bJf6rReX172L4rAovhL1ChpttHe7C3qOjSMyOaSQ9fic+muzBy4GrOIWwF4+Z8T5/TKRuFubHcWvT6dplr9x0YfPzB5FpWKyMHk3XK3+h874XB8VXU2nHWLs0Zw4w+Etcoz/78wKuGaTv+kxUtP1XfOq++3iVhWEYhmEEuRkt3k36T7Zihr4TycdSmIZzGOvWn4vNw5910iUux9UrDtHpOvum4Y72zb/B4RAXupyQe16cTee+7kkB3DDbvQJRbMiNytkMb7igxSEyXV04Yhs16lAAl5uV3tPygjAKXAbJul9DpVylMdJmuLBFcw5nrXForjTMQWXyVjxqPDuX8vrHz2zExo3e6wF88Sf6C3mzCukkUPexb+LFx6xLGI76Ls4O491kDW7Db2MJenDaXnU5g17HnskfuefF2aS/edX1+kY0a9OzgJEhdOrPxYbcxqx07TVdveIQma4eHDR0mA4FMN3TLlXH041rzp7Dh9U5pYxhGIZhJhyG0fIW3h8EZjTeEriCkPjKE0jDcaNSLlcxebUf7+l/iw7tf9lYJ/fHKNcvcuHS92JRgSn1+l9JHabEH3eFcAJnR0RsgTPxyo0KhisSDdLj0nem+Ke0WUg3KlrR0OmSLlz6Xixm/5prVSWVnqP/y43+z+/ycR0z06Wv2G5xFXCPDxeg2t5LEQOXO5y+zBWpEApeaYng5KvKNcy5HsdXyCg58yucvr4SdYtvxJzhXXgTN+KTs2swZ3Q4Rpn2YFDocMOyoPO11mLr08uFDjub9LfsH9X3otnbO6T/Kz60/+X+BtqjYrl+/VhoTg4kZ2Gh/lfSMCun0wfJGIkDGTfX5W1JMwzDMMzEwLXSkvmRMEKub8X8zxluVQ9/1n162GC/XmFoRPXDOay0SJetivA9MLbL1Xqkc1nFkRirJSLNWSst0mjyuHxJlCtZtTB8rHRN/txqVI+240zB+22U6xK5Opn7HlLP7HGdHjbcq1cY1n0H9+cwc9/fdgTDnri92C5Xj+/JaVVAMnIaffrf5Vt9Vlq6TmM42YzlHncbmS6XoZHtlhUf7YIlZCONoD0/RRftVdkazyXLjXJDs+MSZLuyKWPQ68omIRc5ka/4e47clG6lZT/29byLuo/9hbPHxQda1Hjrrf04OTwbS1ZWYvrIr7BP3wumC5v39AgdvhPCBrJZ+8yTrtPD+nv1oHvdQ3gqh5UW6bKVDN8DY7tcPf5kTqs4EmO15NNbfVZauoaQSTZgrddlTLqS1eIuO10NIr+1yOz/cez9NtecPi3atF+LONL4UVyqou/6uHjSRvzvfx/f/2s+vpFhGIZhsl8uKU/tMgwG80WOnntn29sxrdU64UudspX2jik8L4J0n9LlnB5mndKlfn8OvTs6UbkxftyueIXB0TvYisrB5+x9KBJyIdtofSns9DDasG/tkVHPptPD8j40wHMKl3nilPvEqi4c2D8HK+yTs9wnVVm4TqySJ3EZp3TRSoC16mDeE+E/OtqMu2PH7b4/vP9nGJYb3K19KApv+oNOD8tOM50eZm3cdyPjdJ1yptJCG+BVHJ7TwwRW/M5vTzinp3W5n+c+PcxIs03w6WR+crNPVSsldHrY8mE89+JXtaHx29jy2BoMb9erKQL36WEC2gMjv69OClsG/Xn2H+Ef7l0KeE4fC8VzCpf5Ikd5opdtTPTg9f2z8FH7hC/PCVwa94sgvd8xTvAyT/kaOYiXjzbg/thxu+9n9h9E/6oGDD5r7UNReNMfeHpYl3GCmn16WNihAXR62IPA/6rDpHYd5CXs9DA8jL/+/j2oRzf++b4/RpHOLGEYhmGYK5KivhGfYRiGcbh0179hrOkIpvztQ74b8v/9d07iw7P/FR/xeY8LsBp/tu0PcfPgP+O+P2aThWEYhpnY5LgRn2EYhonLNbu+ho/A/wWSZNBcqPJ/8eTq//ItfP/7bLAwDMMwjIXLaKmcNEn/BzxUXY1/a2nBywsXcnhIOMNczYxHnbrSw928gOv+9ru45qOfwYc1OkjyZXz40dOYHLAC89pffgr33XcfGywMwzAMo7lm0aJFtnvY6w0NWN/djf90/fV4IJnEZ3/1K/n/o7NmcXhA+C8/+EBLj2GuPrhNyD2c2wSGYRiGKT4uo+X3RQdMnTDxiZ4eu/Pl8PBwhrlaGa86daWHMwzDMAxTXFwb8T/+8Y/jBz/4gf7EMAzDMAzDMAwz/vBGfIZhGIZhGIZhyho2WhiGYRiGYRiGKWvYaGEYhmEYhmEYpqy5rrKy8ov6fyxevBjHjx/Xn8aZG+ZizVPVGHttRL+Z3k1q00q01pxFz4kPdUh5klh/I9atHEPnkTEdkgdSFkvQPG80h3imoOGJVtR/0Is++Xr8y0kFWjcvwIyuMxjyKzyNlM2D9agYHY80XmVYOrI6jcbVkzAaUG/GA6qra+6hdKVRM624dbaUcTOlIb96r9qzlpkRZZxXW1lkIvqu3KC2dClulvU6iUsBbaqqB8H3S4FVjlT3GsdT3lnEk1l+lDJuhmGiKNuVltTttcCBfvj2aaJTaKofQMdu3UhSJ7F5JTYa15r1U9Q9A2pk6V7rMh1QBGScT8xFQn/GstqiP4O5gpC6WIuU/njZ6BtA25afY8e2nhIZK9RZh9evIPpfEukSaWvv1gFFpOC4qb6a9bdIWG2Nc11enZCD2BzKiClXzqGd6vWW4/594TiS2X1U1r22AyUateu+VF03ouEGHR5JKWVWeNxcNxkmf8rUaKlA2jRKPCRaqnwMmgw6tqkBDA3csGKB0cjRLJ0wJDBY4oZfDOw2zEX/TjGIOqSDioE1IH3pnA64OrA6vaLKiik+0hBbhMSBw6p+UZmJIXj8QcQEpfu4I6/uuWgtgXF0JVLSen+VtpVRKOP9KLr6dMAVjjT6N8xw+vQtJ4Dbuf4wzESnLI88pgZrTdWpgI6HZnznYWSb0UDToOqRKvTaYWSkLEVyn+oYKb6m00fF//TbRUARjQqZ1oWDaHtuAIlNK9E0eBhthrFl5aUdi9Bar8LcRo1Ka1NSfxzpkXFZc1c0K2P9LiMGjWbc4VgyOA5sWKRneQfQvqXHMNyUPOwZYBpkGTKXaV/hdBPxjTFdRjsHkd5QqzoaV77M55Kxmd3Zup9tppvytQDYfgrJR4LyFYUn34FpE3jKIxjP72zM/HnK2iVv+v1MocPvo+kRP5nFRNaFqejIkke4noUhdRBu3XATL26Kx1s/FJ7f2+Wpwq16TFj1yZuWwLhptnbDXP3B0GEpJy1nF4Yueb9jlpct53eQtsrdyLc3nfKzbieUXIJ1gb5LEyyZFbQ6I9KzE3IyxPyO2S6YOuauNwZZuuboavx2Rf3O3X56wsJk5nquf70PRskr3Wml1YrLKa+ottItG7PNiK9ngXj0zIw/K67AOhoG5dfT7xEueZt5sgjWM5nm2943dDLgGREEy8osb4FLF8JQvwvvp+PEHZYfz+/tuhtXF4LjdutZjnWzgDaHYSYCZbinpQItD1ag959O+fqKJtYvQPPYKby+3+iQrk+gbvl0jB7S/qU3VKPlljF0v6x8ii+cOKN9p6egZnU10Fm8PRSTF8xGXdV76PmgGqtmn8KeH76r7yjk/SU1qDhxGHu+8Qv0TUuiedm16PuX87gg7ifWz0Oi7She39WLztfO4tLKJjQZftuZIxTei9F5aVS/N5CDz/4kzFqZQl3LVDEQPiTjH53XhNYWx/c4tSmF0eeP4qCIv/O1UVTcswg1lp+56NDWrflAdIL6/ugk3LwhHdOHl+Rcg7qFY3hD/t6brzH0Wc9cXYExq9wsPM/um5bGqjstmVG+5qPpFitfIu6bFqA+ytfdRnVWtGpA5UGy7dRloTr4ZlQfse6pdLc2xPHX1nnquoia5Va+KY9O3lKbWtHynuiEnn9bxb2m2fDRJ5nVodH+rZDNugZU57rfR9aFSRj0+NNH6VkwFWi6pxqZ/W8HpiNu3IkWPx3Wg6ohSy4Uh5V2pcNTf+nIQNan6eeyysM/blHWd4hBmRWv1OFKtd8ncx49OqxxjjAmvvoW3nQ9W/z2qQZcEAOntpcpXNWPRmvfjJRzGnWrLT10l5c7nVMw/875qB7qx5t23QvWBfpt44rpIt5jGPz1BWiZL9L30giq77he7pOAGPysmtdnp7lv2my0bhTtn7g3JNo6q72w2hyZd1teXh0fRfWDzU69D2UMl0S8jbON+nBDpdRZ1dZGyCyq3oeidKFiiMp4hlGHhXGnvxHaVka2KfH0zBcaTD6QRLduZ1Ub4NTBrLgC6mg41D74yMzSY88zLULbnJQou/kX0WO0f77PiCBIVqH9SxjLUrh54Xl06P7bj3hxB+UnrA+IqwsBcQtdaJkr6qaOV9bN31B6lomsm4W1OQwzESg/97BlM5EaGUS/70zPFKQWJtB/zG+2JoGmR7T/6yO1yOzMZRarQJK1WLMBaA+aReo+bs/6Zd4QnWxyqj2TktndY8zUjKG/M4NEVfH8Xft3OjNB/ccGIEb39uxS/0umjM6ht1tIcQ49WwxsbpuLjOmCd6gH7d0JpFvipo1mmKz4db4WVjozSCGkFpOLnZO2zO5T6E9WIWW4Izn5yk1mNMBOjYi8+M0si86yKWm6JY6ha3sPMobM8ke5PDo6IuLeN+CRiSkzszwKp5R6VlDcWuaBdacgzrnjPfSOkO0MJGK4tVl60mHP9Iq4dnrLy9RDn/KqX6T98dUKgTNTG0MXuk859Vbcc8ZFwohcIdpAIyyz+wQ6RuYiHWcfnTAy0jD1/xw6DmREnavQn8Pp/6m7PpiuunFlVhiV9oAz3uqQIk6bki9q/+UJow6UC3HanNIR3L8UTiFxh/YBhdIn5G3E6+3vwyhKm8MwVzllZrSowbK7kzagAY7ocJ1KbUIDPsv/lVyiLuNmN2oAD8xA66Z4Hb8LmqWzNxuKNPstHxeLgffdciX3AOPZjruJInO6eI165vR5/V8UU5CYJQYCovyctBnL+AWSqBLyHXrPX7+IEY+MisUN00THM1cMuIx8udxJSkwp9ayAuBNzZpRO5gJyGbLSlbMehemJZAC9RltE+wpcA2ly7RDtEW1Udg08CtaFDEYG9L+5MlcMoGiSxXh2TrrQN4xe20CiSSSg9w0jz5EyK4yEdJnLuJ8ZSWnblLJlvNuciP6lIAqIO7IPKAhayXTSRROoObW0hbY5DHOVU15GC80CJt2V0oRmyzKdwzEaGzV7WMwViyjkbOesRTkaShVoFY0aDjgbnEt2EgtBAxZrgEgDTdGBkY+/9WzvCUzuGRzV8eeLHJzm0FGY6VKXs2JUCJnBiBR4Z8VIZvrfwhmAOnnGuC6LP3IhejaGkRGqe0EGeWE6HN+YzR3yIW+lmWadrpxP/JlFgz4HqcN5oGb1a9HkWgkpRBcSSLrGnlOQtPcDxWCkR21WN6/YK11qJU3qg1y18ayKF0lmQci9Kgcg933lanSUqk0pb8apzYnRvwQiJ9dCVg4LiVsQ2QcUQGrTUjmxatevXE9zLHH9YZgrnbIyWnI65jgU7ULh60YWhDVDksvRiiZj6HruODIrluZ83LG9oiHy2FqylRbt8uUy+owZ22W1xmyVdvFZkXIGBlmuU7mQS3noQdGG0hwRK5fr6xf5l5F0HxJ6ZhuePm5yUfSRYebT4eoZ6rxW44pEfnqmXErI1cmUWWJ9raue5K3DJHMxoG8NMfZt41noaM4rRMYqTmqTz+w6DZB83ISUW4dpaGS7ZcVHu2AJXZKpL0gXlEuIHZcg261EpF8MzHzdgGLIOwopGzG4SrVUIWO6qRVVZsHQ6WO5ncYWr03JV8/cslZGfNav7cFowP1SEEfP7Eka6v+KvfoU1L9E0Cf6GdJxV3mJ9G0yyzvPuAWhfYCmoDbHnpwTab43u6yD6ublqj8McyVTRqeHicY85OSS4BNKBDTz4ukIXKfHiIbHb1mcZmqc00mo0aZTVnI71UamyzwVSD/Len5WumVanZNj3CeKiMb6wAw02d8nmWR3JPFO+7Hyoz8KvL9znUBEg56hWqSNE5jcactFLtnpdsnatzzc8bufLaDZYSljla+CTvrx6osdN+FJu++pNBG48mfmK6xMsvU/8EQsH7LkJaFZ1jh6FgNPmZm6FB53HB32fsdJt6usRDm1d1ahNXbc7vuZAz3IrKjKamO86fd9tsCVZk899pKtkyotzl6MYF1wfjvm6PqA+3nu08OMNNt44nfpcbbc3G1hNOr5Ps8Nk1mMeh+Myo9zepiVP+v3UbrgU0fMeh+qZ1GYsqb00MmGM9Fry8ZzX56qGPP0sAiZZeVJYpaLRw8EpkxMPerfSW7VcU8Py45XYuhZVP8ShVvH3XoSGnccPfPoaWxdiIrbE2+/aHMSK7xl7ZGdWTfD6o+8F1NvGOYqpWyMluxO3oQ6pLiNKcMwDMMwDMMwVxNl+Z4WhmEYhmEYhmEYizJ9Iz7DMAzDMAzDMIyCjRaGYRiGYRiGYcoaNloYhmEYhmEYhilr2GhhGIZhGIZhGKasYaOFYRiGYRiGYZiyho0WhmEYhmEYhmHKGjZaGIZhGIZhGIYpa66rrKz8ov4fixcvxvHjx/WncYbe/vpUNcZeG1FvqfUg34hbcxY9Jz7UIeUJvTRz3coxdB6J9xZgX6QslqB53mhh8Ywb9AbgVtR/0Iu+HF7lS2W85p4kLnWdwZCfEjAOlo6sTqNx9SSMBtSbvChl3OXOFV/3iksx2jMZx4P1qBjNrT0oW+gt6fdNRd+/nMcFHXQ1UJS+K4jLILNx0bNitJV5tjlWfhvp2QW1V/79NfXHTZOukjp7VZPfeOtKoWxXWlK31wIH+uErc1Gpm+oH0LFbV0qq5JtXYqNxrVk/Rd3TUIWz7z8xFwkdXijUULjio8ZYPKN1mf48zsiBv0cWVz1SH2qR0h+vJKQ+WXqaSx76BtC25efYsa2n+AZFwXFTI1o+deKyQW1BEduay8YVXH+CUTpo161NFTq8DNB9hrpuRMMNOpy58ojRVpaqT87sPood4tltBwrrAVKblqJp6DjaD+kATf9Pe5DYkKd+XpVtygREtlWecvQLKyFlarRUIG0aJR4SLVU+Bk0GHdtEY6EbDKxY4FQuIdRWHFf3thxGB2qxpiSdVgVaN8xF/86fZ1X4grAawpfO6YCJQf9LVF5H0dWnA65yZGe24jzapZ7S9Q7S5TS4mohM0LpXSqzBVVHbyAgS6xcg3XlY16vj6K9fVCaTOdRnwK7zbQeApkd4cFcMxkPPisJ4tjk0VhJjr3a/Z1O6dp5H071X4EQMc9VwTW1t7SX9Pz7+8Y/jBz/4gf40ftBs85qqUwGVVjTym+dhZJsxmCUr/pEq9NphNKu2FMl9/g2WjH/hINqeGyh4VtqMK0HLp4OH0WYYW1Ze2rFINAYqzG3UUH4WOZ3USI8rXTSQtX6XOeCOOwz53BU+TUu3MN5suXqe7bqXHUduxpgnboH5+9C4ZXnW6oZRNKBbevxX3LLIfqaCDFqlG1Z52PmUz5qKDvsZYeVB92YKPXtfDixk+jzl5St3j1x9ydJhH2hGQxjFFr7lkZUfA8/vbX2i8Nve9+TTU8eIwLhVfWtK6o+GTEz9NTF1OUwX6PdUp9qxwP5OPD1UaaKBqlNnssPc6XP0hMi37rn118TR5eh8efTQ0CGSVytOoKNqabw2ReLOmz9+vyOy60/s9iywvYmTHi/BepYrsmxpIiuqXsZB15/2ziq06rLMSV9M4rQDNkqe8JG/E5a/zKLLOixuSkdIW1mAzGS6PP23O6wAPaN0LX4fHbNqRb7Eb3cOIr1BpN9KewFtpUyj0c7ZGHUktM2RaXsHbYPz7Hj8ZGaVm6nb0TIjVHkGjZsUcb5jYpaFiVEulky3A62WrgS2G4Jc9EzgbuMVcXQtUmYRukDfDW2nffuJeOOd8LitMjoObLDk5onX++w4YxSC8iwnWYy4ssLc5eWrxwHjmEiZCcpwT0sFWh6sQO8/nfLdx0AzZs1jp/D6fkMI1ydQt3w6Rg/pvQ83VKPlljF0v+zvTzp5wWzUVb2HniL409pxfVCNVbNPYc8P39V3FPL+khpUnDiMPd/4BfqmJdG87Frty0vK1YzqI+pe52tncWllE1obHH/UzJFeEd6L0XlpVL83EHsPz4UTZ+zfWc+mz6afa2pTCqPPH8VBCn9tFBX3LEKN5f8rFGvdmg+EIur7o5Nw84Z0zP0lPvm6KYWpv4wZd+Y8eii86yJqlk/CYGy/4DH02b8bwxtW/K85aZblMf2cIwepO9YzospjCmpW16HRjlvIbF0Dqi2ZiYZg1cbp6N52CK/vUrKvuVY0oP9jKFLPErfWonHGIN78SZBOiobgDtFAPv+2Kkcps8psn2lXfgxkQzFDdBQqbRSHrUupSjTOv2jUB8pnBcas+mQREHdi/Twk2o7qeJXMmmaq/WZKf1X5X/zJz9H2sufZEbqQaEmL+pNC3djb2CHy7q4/YXyICzOTaFx4yfjuDNSvm4oz/7tfxS0ayFXz+tD21bfwpnh237TZaBXlZ8k037pn66/IS+Mc0cHp+DsNuUXlK6xukg43rpgf0KbQb5eicVh0QqQrsi5UYmjnIbzZJR8dQsz6E9ieRbQpVvwU7qdfEYTpWa6Q/GtwtgC/fwOqPxSfLkuSX93GND6Sz148b18WyhguCd1snG3sX7hBpEWUndX3FSKzqLIOjzuirfTKTNSV5jWJWHtALrx7LWpuqXL1RbNW1qPiVA865bML0DNK18q0bKs6JtWjZSWl/xSuXZdS5ZnIv62M0yeHtjkybXV2mxGkZ1l9nCBbZlMw/875mNppyUwQMW5SqHa1eX7cvU7RbYqlC3XWffruHVremQL7ZNG/rFlJ3gt0T/VD1X3Hs8ZpfkTqGaU7RBfC22mRr4ebUGHli/qKhRD9cxd+ESx8m/C4J4l0ir6lZaow5qi/p3wvQL1dN8VY4qkGXBDGgOqPVTvdOC1Gu0B5FunsM+upK8xbXqOofrDZ6APCxzHefHnvE+XnHrZsJlIjg+j3nRmZgtTCBPqP+VmECWFpa79gYUFmdgZYq2JgSTM7/fsc67lgkqJikKUZZKkKK9ayNDNvDCKTnKos3GUpNCVNN7gxdG3vQaZeyECHlJL+l0wZnUNvt5DiHHKZEIp321xhIRsueId60N6dQLolhksF5Qvi+74zGQXGXUpilQfNEFlyM2Um/rZUIWHobv+xAaEbuqwL5pxbvw69I9IwA4lY/sWWzE/En3HMgczuHiPeMfR3ZpCoilOWMXWBZs503l31J4LM7lPoT1YhZbuJinLsPqXTWoEmTzuQ2X0CHSNzkb5ce29C8hVcNzVBbYrIV7qedE/rSt8wekc8vy2UwGfHSHcBhOoZzRza+0KMy8+9UgxkWutFPf5pQHudD0ZZKpk7OkwzvVnp8t27IurDvbVI2DoaDe0zMNsnr+t0/nVTE1LW0XEHt5USU2a5tGd9oo12tRHh7uQ5I9LVoWd2XW1TOeCjZ0ln0joYr8yEcZt29XWCuaJsR96PHBdlTp8Xo/dpsdrg+Bi6YuarwD45tVhE0k26RSgdjZ32YuhZUP2R8s+g9w0dl9T/mGVpEVI3if6d1uqfu27SZEPK0HE5ttg5gMTCyphlKsbQZltmrJrIfLnGfufQcSAjysFqh2OMY4x8+d0vM6NFDWICDQo9GHaEbUKKq/yCyWcZG/w2uwkrTxg0OHA45tJmTIQCtB+YgdZ89h/EaCRKBs2+G8qXtYR62lK84lPKuAuigPKQjbkxSHY3mIXjHvz4LbkHMQXJZAll7hkw+rpAhBCVrkznsFMm0t/bHBiHQR2YMXgU5eGe8MhgRNiV40VoviLqZjBjGBFGit1JeDvHUpN3umMQpmdSflb7b1xmB0lQHHLfYQ4uQzkzhsyQ/leg9uZ5r+znyw3Qon+zB6VxkAM8y9CmST24y7rAuhlKKeOOgCaE7EGWnIwoXjt7pRF3UsCUmd++4MScGfq/CAZEH+kZIBeMa6JaGCbPGS5BhfTJg+KXtoGjJr1d7W4EJdOzvvdEGgyDiOLGAHqLOS4NY4ieny/kama0ZcLgsSHDlybxQ9qF3McxbmOuvIwWbf0HFRwNOuIpnLLu3LM+2s/OtOKKiJylnZXH5k5v5adC1/+WFLvzdpSvvVvf07gbwylIzNL/FoFSxl0QhZQHNebi29aKX+CGRh+8Bo8X6etJ8dmNxfEcGk81kC0NzkSApUe5nl5TSl1wOh01S+ZuW7wzW8q4G3di1M1g9IC5fpHqFGTZlGaFLYuC0h1FhJ55BtD2ZU4k0XdKMWmVhdJhyxiPs9Ki/O5F/Tb85+OhZlGlkSpnOc3BX+F1M5hSxh0DmoHV7WX2ZMTEIvZklC0zH+NWIPugOMRckSkaBfTJKk/WyoCaFPD3AAmgZHqm+uTEiqWqPZDtZtzJuCLgWW2KbbDGgVYDdZtgX3oclN84xj25WFZGS07HHIeiXT9sBXMMluDNRlOgjsTM98hJmh04joxQwthHu8qlL5Ev29DxcZcpEJppCF72M5RhGblM6P91R5hYkXKs4Kxl2hDkTIyx4kAziPZgsMC44yBnMULcfOwKqzpeWzYFlofSX6cT3xF7RUBwqB8dI8LgcZ3MItJnDrqMjiK1KZeVFj2w2RByKpHdMVA9yCVuhd1xinpqbax1UANpZ4nY4jLogux0RN6WzUTCVY7KjSAlytdKbfayeYF46kFuBNXNCHQ7ac6E5TxJE1V/Qskz3TEJ1LOolRbDYAmUB32HBhCFHlOtddgykKNWWmyDJZf2wkC6hog2LdVShYyPl0J43SyMUsYdjlpFTc6tQHpWEetsHAptK0P75PjQ/l5Tz6KhyVyIPmYB0kM+LogxV1DkADfXmfp825SC+mT1XXMSZUfOkwIRepavLmivIbPNKu1EioNyJatFk10W2a7SeSP7W9Huh03e5zCOkfc920XKaCO+ENw9ziZZL3Kj8thpHPTb/CU3vc1BzXJ6oRNd1bJz2r9PbSqSm/drJgMzq/V9dblfOqU2L1VPvYDBHDbuyU1v9qb+MfTJjUNNqNGbmrI2xbk26NEmNbVR6WaZJu8mMTK2lsp7NTPFs2pSMt1W3HG4cOKc2ri2TufbeulU5jzG5tWj5Q4dPmcQHX2VqNCb/2jTYN+0NFZZL6vKYZMYxT0oNzWr39KmqjfGUqg4q+QdFTdZ4/IlWcsrMVk0CTX0nZxe1OWUg4x/tfOCSrc8pqJ3Zx+mLoxbHtmbLmlDr7VhMjNIGyOb9IvFrCtuuj/E0L/oTYZWWa3+EB3Pn5a/vXBiTG4wtOKuONGDoZrpdlqiZJYlc3HZetQ/gtF54rn3UDhtmBfG90Inn+Fxj2GUNgGu0fHSJmDRMVZ7NoJmjqjNfkquzrMjdcGQb35Q+kT8ayaj29O20KbX0YYlWCXznUZdzTto/2ovlGdP4XXPWw/M8gjNV0TdDG1T5G+tsnSunNIdUn+inx2cbuk69rsUZ7XQosmolu113JfHxtOzIFK/uQR1Rjl68yXJXMRHaKNucsy1gToSayOxFe9C2vgb0wChwf4dZr3SVy4vByS5Cz1uXfIOOlybqAuTWVTfFR53eFsZtYk5DtTeNj7QgMlHjM3kRCF6ZqRrsp3eSU7augppKxWBfXJUm+PRM9le2XpGg+ZWrBJx1pljHY8eqc3lc5DZ/7Yx9tFI/Tc3bPuhNvBf/Fef34cS3KZk64JJIX3yGIY+MJ+pr5su2odJxCFQzyL6zdD60/++p69XV9wXoYbXTTWWnWodfCRwfV+0Fz1dlCfrJaju8XIoVFaijw7eiO8tL3e+osYxMp1LauzfyYOMPIZm2Rx5TJXde0yfA1Vmn2MFGaaMoBlT75HXcha1WEerMkwUckXBcyy1DIt7jO7ERtbXWdkdJcOMO2SMuY7YzQO/9sGEnuE90takGGm4bJAh5z2eWYW5j8IfB/zkGCX7CUC4HaAoG/cw+SKowISeEwXJHS5TzvjtxaB9FDRTM46NIzOx8PH3lqfa4Twy3H4GQwOGzWywMFczYsB+b4gLPiFPb5zrf6gQGTx0bP72K6V++OxRlPumRZ8cdx9QifDbQyIP7rmce4WuUMry5ZIMc0UiZ7HcL4uK+8I0hikWao+E/iDJf78EwzBlQt6rHGp1Qe4rDd3Xa+G3QqHalfSxy7f3oijI1QvXaStyj8v458EoEwvawD7BJ0zirLSw0cIwDMMwDMMwTFlTfi+XZBiGYRiGYRiGMWCjhWEYhmEYhmGYsoaNFoZhGIZhGIZhyho2WhiGYRiGYRiGKWvYaGEYhmEYhmEYpqwpozfie6DjY5+qxpj55k0DeaxnTS5veZ4A0PF+903N6W2vSs5L0JzLG5gnMKR3a/TbxnN7y3g0pYybuXqQb91eOVaa+hqzDVG6Gvdt9mWA1c7JNy2731BeOM6bzOO/4Z9hGIbJlbI1WlK/uQTVJ07gTb+Bm+iAWu8YQ8c3BlXH4+qQfAZ93vs3XcxtYB+J2WmJa7wMgFQlGudfRE8uebs+gbrllZg8fDb3NOdjJJUF7vLKxUDIHOlF52u9GJ2XRvV7A0U1LAqOexzL48qbRFA6UDPaiz77BSZ+YeXH5AWzUTf9XGnamJhtSKJF1JuZFzB46DIP0EnHf7dJt/M5GAiZ8+gRdauz6yJqlk/CYFGNljH0UdyvjaJidQXGcpYJvbOhFfUfFFvvVLyr1ul+6bL3TaXKF8MwE5UydQ+jN4kPoCPgpXz0hufst7pm0LHt59ixRVzbeoAVC9Bwg77VN4A2CtdX+1At1vi98TUfyCDavAiJA4ft+Hccm4nWZfp+uWPJJvKFU1cJPuXVjpSjKwzDRNL/EtWdo+i6jG/ZpxWmjfRGbqud33ICuH2u62WuTDb0Mj0lr+Por1+ENeun6DsMwzBXFmX5csnwt2LSbOg8jGwzOkwaiD5ShV47zP+NrhZx3roZFznDjPC3zMrnrbC6VjKuzHQuALafQvKRRWLoTOT29mp33ALXW1VJVla8As8bV2Xa9Zuzc3pzu5S3+83vCivt2WVEz2oadJ7hTbf5llq614oT6KhaaqfP/RZbT74kplyDiS4vpTv2m2oD3lLrzY+D5/e2TLJ1MkgPA+OmWWbj7b62TCLLgwjRBfn7qejY8g7S1ndivp03S/8s7DcvO/nuXWzpm7usgnUhRv3wzXucOqTkAR+9csLcMsuqI0HlIYjW4WiC5GLpTTsWxasfMctSQnm67X20d1ahVT/blW+XvP3kHCIzinvxO2gbnGfnK36741deXjz59nv7t63rPvrhKU8nbRRveHumyP6ehbssHf2X7ZEuQxNTLsH1Q6DLq2070GqVi0/dU99Xn9OdnjKx82zWS8rLTIwcmIEm8ezMgePoXbhItGve7/jrWZx8BT+bYRjGnzJ0D6tAy4MV6P2nU75L7In1C9A8dgqv7zc6C+niNB2j1rL8DdVouWUM3S/7uQBMwfw75+Piv75dhCXrCjTdU43M/pC4RCfZMrcPbd/4hXT96Zs2G62/ca124ZmEWSvno+mWqcLgOoTXd53FpZsWoH5mTDcb0eivW/OBGDgcxUFyTxidZLh2UAfVjOojh7FHPlvEvbIJrQ2Oe0De7kiWqwU9b84g2r76Ft6U7hGWvKegxuMmQe4k9jN80n3zhrTt6kHuL40r5qPihEp737QkmpdZMqMOcSkah0XH/Pzb2t2jEkM7D+HNLvWsYKLLK7F+HhJtR0VZUH6UzJp8ysOVHxs1KGga0mlzyYTKOoWpv3RcJYLcfPzjFgOEO8TgxIpXyqxS+ebHKI9QXZD1J4261ZYejqJiXQOqY7hJXThxRqaHdMgqL5k+O08q33UiT9b90Xn1aKnTzw7Vhaj6IfL1cBMqrHxR/hdCDH668Autd8GQjlYDnWYezTCvzEZR/WCz4ToWUh7irleHvfejUAPV845cxOXSmyU1AfUjut6HQu5h5Po19rZdv+o2pvERyw0r1M0qQmYU98o61FlxC5k0r0nEk8myFG5eeB4dvm26IrUphdHnLXkJHb5nUbarn9R1H/cwOYCmVRzSMyVvp/5FtGc22d+ThPQBQ7INJr1O4eJPfo62lz3PjmgrrfKqWz6GN+g7VC53pHR5edoc2S9WInNI6Iz8LAy4B5LotvI8Oh2rHrB0lPKiy2r/h6Kc6mT6OibVo/56qn+TQvVM9S0h+Qp9NsMwjD/l5x62bCZSI4Po951xmYLUwgT6j/nNkifQ9MhKbNwsrkdqkdnpmUmjTonubRaDSvSgI3C2Ln9odkk9Y6XjHtY3gHZjNi7zxiAyyamumeH+ndYM0xj6OzNIVMVZvhcDhNvmit8GzCiLTr4pabrYjaFrew8y9UK+OmR8UOnOmO59h3rQ3p1AusXId/dxe0bOLTNyHRQys3Sgbxi9I6L05xTH5SGzu8eY7culPARa5u2BqziFcM4d76F3hPxmIBHHrS2mLjh6eA693cWTqcQoz/5jA8CsaaI84+lCYP24oRLpZAa9b+h8SZkkkHQmyyNJbXDq7EZz1pjiFu2EU3fPoeNABqnFlltpjPIw8pxTeZFxvUK0c0F1mwiqH8Wo9zRjbuVN1i9P3QwiUmYCM+6cZBJN/0umvHLRYUsPT5Rmpj9GH+BPzLZSDPM7tum86/Iy64Ct49IbwVmlUW7WRp4P9aNjZC7StmuziPenuqxEubn6zAL1LPrZDMMw2ZSZ0aIH4vsCXBmooQw0OKjhdnx3IRpql++uaOytPQw79k3Fms21RR+8Kz/vw6Lx1QESkacnjIGRrxtPiRh5v2xnrTKnnU48N8YwIuRrD4S8A9dCoRlAexArdMhwy4giMWdGSWVuGsWuAXYcItM1gF6jXpEu2wPuIuCaaKC6aLgr5a0Lfe+JOIwBHE14ePIRBbna2O0C+fzrcMwVg8pkbagu5F4eMQ2qG8igy2BE2HZ5UVQdHENmSP8bRQyZlRR7Ykpdfu5J/kxBMllImxRFYX1AZLpck3zCeHjO7UKndJz6Jbexk6hKILFiqSEz0601BgXoWcHPZhhmQlJeRoscgAYPOlKL5yLTORyjoVQzfIEz5EWb4fMMoH0gVyYytOyDALb1FHFAEYF3No8GFfrf8cY9AzoFiVn630j0IKp+kersxADANWMXSlR5VUi/cBxwNum3CT2KS+b0ef1f8SF3odZ62kOg9cgcYMfhKtUFKk978LMhZOUxH2hVwJa3vvQqQX7lEdMQkcZYARS1rFV5xB7Qh8isIAZogBwyE0+TDbL8nee2d+t7kSg9KhWF9gH51w8TYczsGxB1JeUyrmmPiV1O+greM+ShQD0r6NkMw0xIyspoSd1OA0bvqWAa0Sk1hZwo5ka7V/i6kdGAY56PC5o1G3ZjDidJqY6ABtChp4UNWYMQ8Yx7i7XSogbvzoqD6rRtpGEmZGavNqlVLJerQaHQQCJZhZSvvJxZZTXAU/9TuqWLj9l5ZrkahKD1wBks5rIi4F9eifW1rjK3B2jiWdZm5FiQzJO1aA05nccegCyrzX0W2pjZTG3ymdkPKo/LoAuZQVGmCytz1O0CdUGvvJqD5KINemKUZWR5GMj7gW6vXsi1KYGme/M4GavYZa3LI9bqVRyZ5Uuf0AlhhKQ2mCvkIm+bTBkZRqGoX/FXWpQeuuP2EtSexSS0D/C05TYF1g8v2gXL0g1y00yYp2zmQiw9C8pXgc9mGGbCUkanh9FJJP4nrxByY2rQiV80YPcsuQefUiKg2cCs03REo0ubqF2no8TE5/n2CS+ee/0HekRjbZ1eo54Z50Qpf8zTW8RAftv7YqADtNt5M+8L7FNlCM89jUtuMZDptQffZEzomW5T5uK5dNJR8OlhbplnyUDK0Dnxx+9kmpzS7dEH87fe/HTQ6Tl2WuLIzPsdQyamLggdlCc0xY7bfT8j9CizoiqrvgSWhzd+Uxc88s0Pq/7oj3b82TruJVgXouqH55ka1+lKgSh55HJ6GOHEHV4e7jwJfNuccLx6bj3bLQNBVvmFlHUU3rbSpUM++ZKE6JnAlhnFTSddudqn4DbfD7dM3O2G656Qd8dQLdK6zYlOd3beXPU6rD3LkhlhpC20D7Dw6pPzbHe6PP1TlkxNfOqeTCsdOKDjyEq7JROjbOY6z0gIGTvteBw9C85X8LMZhmH8KRujJasjdpF758ZcpfgNsGWYeeQ1MyHwG7DJgZAw3Md58BPenjEMwzAMkytl4x6W2X00pIM/JwYhPCBlBD5+03QSTQLnkWH9mFDIgw880L634m5EZxiGYRimHCjLl0syTBjZ7mHsVjAx8XEPy8MNqxTwSgvDMAzDFBc2WhiGYRiGYRiGKWvK7+WSDMMwDMMwDMMwBq6VFoZhGIZhGIZhmHKDV1oYhmEYhmEYhilr2GhhGIZhGIZhGKasYaOFYRiGYRiGYZiyho0WhmEYhmEYhmHKGjZaGIZhGIZhGIYpY4D/Dxk4/LDFKU1xAAAAAElFTkSuQmCC;" vertex="1" parent="WIyWlLk6GJQsqaUBKTNV-1">
          <mxGeometry x="70" y="400" width="813" height="81" as="geometry" />
        </mxCell>
        <mxCell id="NvSLLohelED6vJnicQob-6" value="CalculatorApp" style="swimlane;fontStyle=1;align=center;verticalAlign=top;childLayout=stackLayout;horizontal=1;startSize=26;horizontalStack=0;resizeParent=1;resizeParentMax=0;resizeLast=0;collapsible=1;marginBottom=0;whiteSpace=wrap;html=1;" vertex="1" parent="WIyWlLk6GJQsqaUBKTNV-1">
          <mxGeometry x="340" y="80" width="160" height="158" as="geometry" />
        </mxCell>
        <mxCell id="NvSLLohelED6vJnicQob-7" value="+" style="text;strokeColor=none;fillColor=none;align=left;verticalAlign=top;spacingLeft=4;spacingRight=4;overflow=hidden;rotatable=0;points=[[0,0.5],[1,0.5]];portConstraint=eastwest;whiteSpace=wrap;html=1;" vertex="1" parent="NvSLLohelED6vJnicQob-6">
          <mxGeometry y="26" width="160" height="44" as="geometry" />
        </mxCell>
        <mxCell id="NvSLLohelED6vJnicQob-8" value="" style="line;strokeWidth=1;fillColor=none;align=left;verticalAlign=middle;spacingTop=-1;spacingLeft=3;spacingRight=3;rotatable=0;labelPosition=right;points=[];portConstraint=eastwest;strokeColor=inherit;" vertex="1" parent="NvSLLohelED6vJnicQob-6">
          <mxGeometry y="70" width="160" height="8" as="geometry" />
        </mxCell>
        <mxCell id="NvSLLohelED6vJnicQob-9" value="+ main(): void" style="text;strokeColor=none;fillColor=none;align=left;verticalAlign=top;spacingLeft=4;spacingRight=4;overflow=hidden;rotatable=0;points=[[0,0.5],[1,0.5]];portConstraint=eastwest;whiteSpace=wrap;html=1;" vertex="1" parent="NvSLLohelED6vJnicQob-6">
          <mxGeometry y="78" width="160" height="80" as="geometry" />
        </mxCell>
        <mxCell id="NvSLLohelED6vJnicQob-10" value="pop" style="swimlane;fontStyle=1;align=center;verticalAlign=top;childLayout=stackLayout;horizontal=1;startSize=26;horizontalStack=0;resizeParent=1;resizeParentMax=0;resizeLast=0;collapsible=1;marginBottom=0;whiteSpace=wrap;html=1;" vertex="1" parent="WIyWlLk6GJQsqaUBKTNV-1">
          <mxGeometry x="80" y="560" width="160" height="200" as="geometry" />
        </mxCell>
        <mxCell id="NvSLLohelED6vJnicQob-11" value="Gọi hàm để thực hiện chức năng của chương trình" style="text;strokeColor=none;fillColor=none;align=left;verticalAlign=top;spacingLeft=4;spacingRight=4;overflow=hidden;rotatable=0;points=[[0,0.5],[1,0.5]];portConstraint=eastwest;whiteSpace=wrap;html=1;" vertex="1" parent="NvSLLohelED6vJnicQob-10">
          <mxGeometry y="26" width="160" height="74" as="geometry" />
        </mxCell>
        <mxCell id="NvSLLohelED6vJnicQob-12" value="" style="line;strokeWidth=1;fillColor=none;align=left;verticalAlign=middle;spacingTop=-1;spacingLeft=3;spacingRight=3;rotatable=0;labelPosition=right;points=[];portConstraint=eastwest;strokeColor=inherit;" vertex="1" parent="NvSLLohelED6vJnicQob-10">
          <mxGeometry y="100" width="160" height="8" as="geometry" />
        </mxCell>
        <mxCell id="NvSLLohelED6vJnicQob-13" value="OS =&amp;gt; gọi hàm main() =&amp;gt; Gọi hàm multiply()" style="text;strokeColor=none;fillColor=none;align=left;verticalAlign=top;spacingLeft=4;spacingRight=4;overflow=hidden;rotatable=0;points=[[0,0.5],[1,0.5]];portConstraint=eastwest;whiteSpace=wrap;html=1;" vertex="1" parent="NvSLLohelED6vJnicQob-10">
          <mxGeometry y="108" width="160" height="92" as="geometry" />
        </mxCell>
        <mxCell id="NvSLLohelED6vJnicQob-14" value="opp" style="swimlane;fontStyle=1;align=center;verticalAlign=top;childLayout=stackLayout;horizontal=1;startSize=26;horizontalStack=0;resizeParent=1;resizeParentMax=0;resizeLast=0;collapsible=1;marginBottom=0;whiteSpace=wrap;html=1;" vertex="1" parent="WIyWlLk6GJQsqaUBKTNV-1">
          <mxGeometry x="240" y="560" width="160" height="200" as="geometry" />
        </mxCell>
        <mxCell id="NvSLLohelED6vJnicQob-15" value="Gửi thông điệp cho đối tượng để thực hiện chức năng của chương trình&lt;br&gt;(Gọi ham bằng Remote)" style="text;strokeColor=none;fillColor=none;align=left;verticalAlign=top;spacingLeft=4;spacingRight=4;overflow=hidden;rotatable=0;points=[[0,0.5],[1,0.5]];portConstraint=eastwest;whiteSpace=wrap;html=1;" vertex="1" parent="NvSLLohelED6vJnicQob-14">
          <mxGeometry y="26" width="160" height="74" as="geometry" />
        </mxCell>
        <mxCell id="NvSLLohelED6vJnicQob-16" value="" style="line;strokeWidth=1;fillColor=none;align=left;verticalAlign=middle;spacingTop=-1;spacingLeft=3;spacingRight=3;rotatable=0;labelPosition=right;points=[];portConstraint=eastwest;strokeColor=inherit;" vertex="1" parent="NvSLLohelED6vJnicQob-14">
          <mxGeometry y="100" width="160" height="8" as="geometry" />
        </mxCell>
        <mxCell id="NvSLLohelED6vJnicQob-17" value="OS =&amp;gt; gọi hàm main() =&amp;gt;&lt;div&gt;message đến đối tượng Calculator trong Heap memory (Gọi multiply() thông qua cái Remote)&lt;/div&gt;" style="text;strokeColor=none;fillColor=none;align=left;verticalAlign=top;spacingLeft=4;spacingRight=4;overflow=hidden;rotatable=0;points=[[0,0.5],[1,0.5]];portConstraint=eastwest;whiteSpace=wrap;html=1;" vertex="1" parent="NvSLLohelED6vJnicQob-14">
          <mxGeometry y="108" width="160" height="92" as="geometry" />
        </mxCell>
      </root>
    </mxGraphModel>
  </diagram>
</mxfile>
